# xmcd
#
# Track frame offsets:
#	150
#	16215
#	34891
#	48892
#	60199
#	73096
#	84925
#	101345
#	117748
#	130003
#	145127
#	161031
#
# Disc length: 2283 seconds
#
# Revision: 2
# Processed by: cddbd v1.5.2PL0 Copyright (c) Steve Scherf et al.
# Submitted via: audiograbber 1.83.01
#
DISCID=9808e90c
DTITLE=Nothin' Fancy   - Now and Then
DYEAR=1900
DGENRE=
TTITLE0=Travelling Kind
TTITLE1=Talking to her Memory
TTITLE2=Ready for the Times
TTITLE3=I've Been Away Too Long
TTITLE4=Dublin
TTITLE5=Jenny Doesn't Love Here 
TTITLE6=Old Heart of Mine
TTITLE7=Circuit Rider
TTITLE8=Wandering Boy
TTITLE9=Every Now and Then
TTITLE10=Be Nobody's Darlin' But Mine
TTITLE11=Living Proof
EXTD=
EXTT0=
EXTT1=
EXTT2=
EXTT3=
EXTT4=
EXTT5=
EXTT6=
EXTT7=
EXTT8=
EXTT9=
EXTT10=
EXTT11=
PLAYORDER=
